<svg width="24" height="24" viewBox="0 0 24 24" fill="none" xmlns="http://www.w3.org/2000/svg">
<g id="material-symbols:arrow-back-ios-rounded">
<path id="Vector" d="M7.21659 18.7032L0.228111 12.0541C0.145161 11.9749 0.0865438 11.8892 0.0522581 11.7968C0.0174194 11.7045 0 11.6055 0 11.5C0 11.3945 0.0174194 11.2955 0.0522581 11.2032C0.0865438 11.1108 0.145161 11.0251 0.228111 10.9459L7.21659 4.27704C7.41014 4.09235 7.65207 4 7.9424 4C8.23272 4 8.48157 4.09894 8.68894 4.29683C8.89631 4.49472 9 4.72559 9 4.98945C9 5.2533 8.89631 5.48417 8.68894 5.68206L2.59217 11.5L8.68894 17.3179C8.88249 17.5026 8.97926 17.7301 8.97926 18.0003C8.97926 18.271 8.87558 18.5053 8.6682 18.7032C8.46083 18.9011 8.21889 19 7.9424 19C7.6659 19 7.42396 18.9011 7.21659 18.7032Z" fill="white"/>
</g>
</svg>
