<?xml version="1.0" encoding="UTF-8" standalone="no"?>
<svg
   width="64"
   height="64"
   viewBox="0 0 64 64"
   fill="none"
   version="1.1"
   id="svg336"
   xmlns="http://www.w3.org/2000/svg"
   xmlns:svg="http://www.w3.org/2000/svg">
  <g
     id="Iconly/Bold/Graph"
     filter="url(#filter0_d_229_1840)"
     transform="translate(2,2.0000601)">
    <g
       id="Graph">
      <path
         id="path343"
         fill-rule="evenodd"
         clip-rule="evenodd"
         d="m 30.3264,16.2096 c 0.1597,-0.1433 0.3709,-0.2185 0.5871,-0.2088 4.5708,0.1368 8.3909,3.4549 9.0832,7.8898 0.0044,0.0264 0.0044,0.0535 0,0.0799 0.0149,0.2099 -0.056,0.4169 -0.1971,0.5753 -0.141,0.1584 -0.3406,0.2551 -0.5545,0.2688 l -7.6795,0.5064 c -0.254,0.0226 -0.5059,-0.061 -0.6938,-0.2301 -0.1879,-0.1692 -0.2944,-0.4082 -0.2933,-0.6584 l -0.5162,-7.5432 v -0.1244 c 0.0094,-0.2122 0.1044,-0.412 0.2641,-0.5553 z m -0.5267,11.0839 6.6561,-0.4265 0.0453,0.0178 c 0.2858,0.0047 0.558,0.1206 0.7568,0.3222 0.1987,0.2016 0.3076,0.4724 0.3027,0.7529 -0.2622,3.8221 -3.0644,7.0155 -6.8778,7.8383 -3.8134,0.8227 -7.7226,-0.9228 -9.595,-4.2844 -0.5506,-0.9682 -0.8985,-2.0345 -1.0233,-3.1364 -0.0485,-0.3265 -0.0697,-0.6563 -0.0634,-0.9862 0.0126,-4.0642 2.9062,-7.5722 6.955,-8.4318 0.4901,-0.0917 0.9815,0.153 1.1954,0.5953 0.0532,0.0803 0.0958,0.1669 0.1267,0.2577 0.0759,1.1716 0.1547,2.3321 0.2331,3.4877 0.0619,0.9126 0.1236,1.8222 0.1835,2.7317 -0.0031,0.2143 0.0306,0.4276 0.0996,0.6309 0.1625,0.4 0.567,0.6538 1.0053,0.6308 z"
         fill="#eab96b" />
    </g>
  </g>
  <defs
     id="defs334">
    <filter
       id="filter0_d_229_1840"
       x="-2"
       y="-2.0000601"
       width="64"
       height="64"
       filterUnits="userSpaceOnUse"
       color-interpolation-filters="sRGB">
      <feFlood
         flood-opacity="0"
         result="BackgroundImageFix"
         id="feFlood317" />
      <feColorMatrix
         in="SourceAlpha"
         type="matrix"
         values="0 0 0 0 0 0 0 0 0 0 0 0 0 0 0 0 0 0 127 0"
         result="hardAlpha"
         id="feColorMatrix319" />
      <feOffset
         dy="4"
         id="feOffset321" />
      <feGaussianBlur
         stdDeviation="10"
         id="feGaussianBlur323" />
      <feComposite
         in2="hardAlpha"
         operator="out"
         id="feComposite325" />
      <feColorMatrix
         type="matrix"
         values="0 0 0 0 0.917647 0 0 0 0 0.72549 0 0 0 0 0.419608 0 0 0 0.5 0"
         id="feColorMatrix327" />
      <feBlend
         mode="normal"
         in2="BackgroundImageFix"
         result="effect1_dropShadow_229_1840"
         id="feBlend329" />
      <feBlend
         mode="normal"
         in="SourceGraphic"
         in2="effect1_dropShadow_229_1840"
         result="shape"
         id="feBlend331" />
    </filter>
  </defs>
</svg>
